<svg viewBox="0 0 999 148" xmlns="http://www.w3.org/2000/svg" xml:space="preserve" style="fill-rule:evenodd;clip-rule:evenodd;stroke-linejoin:round;stroke-miterlimit:2"><path style="fill:none" d="M0 0h998.167v147.154H0z"/><path d="M162.004 79.59c3.34 0 6.179 1.169 8.518 3.507 2.338 2.338 3.507 5.177 3.507 8.518v34.071c0 3.34-1.169 6.179-3.507 8.517-2.339 2.338-5.178 3.508-8.518 3.508H90.028V79.59h71.976Zm0 12.025h-59.951v34.071h59.951V91.615Zm0-82.172c3.34 0 6.179 1.17 8.518 3.508 2.338 2.338 3.507 5.177 3.507 8.517v34.071c0 3.341-1.169 6.18-3.507 8.518-2.339 2.338-5.178 3.507-8.518 3.507H68.587V9.443h93.417Zm0 12.025H80.612v34.071h81.392V21.468Zm-11.023 11.023h-12.025v12.025h12.025V32.491Zm0 70.147h-12.025v12.025h12.025v-12.025Zm11.023-11.023v34.071-34.071Zm0-70.147v34.071-34.071Z" style="fill:#4f46e5;fill-rule:nonzero"/><path d="M57.703 31.183v10.09c-8.622 1.009-15.726 4.477-21.312 10.405-5.587 5.928-8.38 13.012-8.38 21.252 0 8.745 3.123 16.207 9.369 22.387 6.247 6.18 13.944 9.438 23.094 9.775h2.903l-8.314-7.946 6.334-6.054 20.191 19.297-20.191 19.423-6.334-6.054 9.106-8.576h-2.903c-12.229 0-22.588-4.12-31.078-12.361-8.489-8.24-12.734-18.203-12.734-29.891 0-10.931 3.871-20.39 11.613-28.378 7.742-7.988 17.287-12.444 28.636-13.369Z" style="fill:#4f46e5;fill-rule:nonzero"/><path d="M237.485 138.404V12.774h80.532v19.09h-57.76V65.97h52.214v19.091h-52.214v53.343h-22.772ZM372.096 140.269c-9.193 0-17.166-2.029-23.917-6.086-6.752-4.056-11.979-9.729-15.68-17.016-3.701-7.288-5.551-15.782-5.551-25.481 0-9.75 1.85-18.281 5.551-25.593 3.701-7.312 8.928-12.996 15.68-17.053 6.751-4.057 14.724-6.085 23.917-6.085 9.193 0 17.165 2.028 23.917 6.085 6.752 4.057 11.979 9.741 15.68 17.053 3.701 7.312 5.551 15.843 5.551 25.593 0 9.699-1.85 18.193-5.551 25.481-3.701 7.287-8.928 12.96-15.68 17.016-6.752 4.057-14.724 6.086-23.917 6.086Zm.098-17.814c5.022 0 9.202-1.379 12.539-4.135 3.336-2.756 5.835-6.465 7.495-11.127 1.661-4.662 2.491-9.864 2.491-15.606 0-5.758-.83-10.976-2.491-15.655-1.66-4.678-4.159-8.407-7.495-11.188-3.337-2.781-7.517-4.172-12.539-4.172-5.087 0-9.316 1.391-12.685 4.172-3.37 2.781-5.885 6.51-7.545 11.188-1.661 4.679-2.491 9.897-2.491 15.655 0 5.742.83 10.944 2.491 15.606 1.66 4.662 4.175 8.371 7.545 11.127 3.369 2.756 7.598 4.135 12.685 4.135ZM434.027 138.404V44.181h21.545v15.704h.981c1.718-5.447 4.674-9.655 8.87-12.624 4.196-2.97 8.992-4.454 14.391-4.454 1.226 0 2.609.057 4.146.172 1.538.115 2.822.278 3.853.491v20.391c-.965-.303-2.46-.591-4.485-.866a43.422 43.422 0 0 0-5.821-.411c-4.073 0-7.711.869-10.913 2.607-3.202 1.738-5.725 4.143-7.569 7.214-1.845 3.072-2.767 6.603-2.767 10.594v55.405h-22.231ZM498.314 138.404V44.181h21.25v15.998h1.129c1.963-5.373 5.206-9.587 9.729-12.642 4.523-3.055 9.933-4.582 16.231-4.582 6.38 0 11.772 1.539 16.176 4.618 4.404 3.08 7.502 7.282 9.294 12.606h.981c2.086-5.226 5.615-9.403 10.588-12.532 4.972-3.128 10.881-4.692 17.728-4.692 8.669 0 15.736 2.737 21.2 8.213 5.463 5.476 8.195 13.469 8.195 23.979v63.257h-22.231V78.582c0-5.823-1.558-10.1-4.674-12.832-3.117-2.732-6.924-4.097-11.423-4.097-5.364 0-9.544 1.666-12.537 4.998-2.994 3.333-4.491 7.654-4.491 12.962v58.791H553.67V77.699c0-4.866-1.46-8.757-4.38-11.673-2.92-2.916-6.727-4.373-11.421-4.373-3.19 0-6.096.813-8.717 2.441-2.622 1.627-4.712 3.899-6.27 6.815-1.558 2.915-2.337 6.307-2.337 10.176v57.319h-22.231ZM696.23 44.181v17.176h-55.699V44.181h55.699Zm-41.762 94.223V35.299c0-6.347 1.317-11.622 3.951-15.826 2.633-4.204 6.179-7.353 10.637-9.447 4.457-2.094 9.41-3.141 14.857-3.141 3.852 0 7.267.303 10.244.908 2.977.605 5.19 1.153 6.638 1.644l-4.466 17.225c-.933-.294-2.113-.597-3.54-.908-1.427-.311-3.012-.466-4.754-.466-4.147 0-7.073.994-8.778 2.981-1.705 1.988-2.558 4.822-2.558 8.502v101.633h-22.231ZM710.805 12.774h22.231v125.63h-22.231zM792.906 140.269c-9.193 0-17.165-2.029-23.917-6.086-6.752-4.056-11.978-9.729-15.679-17.016-3.701-7.288-5.552-15.782-5.552-25.481 0-9.75 1.851-18.281 5.552-25.593 3.701-7.312 8.927-12.996 15.679-17.053 6.752-4.057 14.724-6.085 23.917-6.085 9.193 0 17.166 2.028 23.918 6.085 6.751 4.057 11.978 9.741 15.679 17.053 3.701 7.312 5.551 15.843 5.551 25.593 0 9.699-1.85 18.193-5.551 25.481-3.701 7.287-8.928 12.96-15.679 17.016-6.752 4.057-14.725 6.086-23.918 6.086Zm.098-17.814c5.022 0 9.202-1.379 12.539-4.135 3.337-2.756 5.835-6.465 7.496-11.127 1.66-4.662 2.49-9.864 2.49-15.606 0-5.758-.83-10.976-2.49-15.655-1.661-4.678-4.159-8.407-7.496-11.188-3.337-2.781-7.517-4.172-12.539-4.172-5.087 0-9.315 1.391-12.685 4.172-3.37 2.781-5.885 6.51-7.545 11.188-1.661 4.679-2.491 9.897-2.491 15.655 0 5.742.83 10.944 2.491 15.606 1.66 4.662 4.175 8.371 7.545 11.127 3.37 2.756 7.598 4.135 12.685 4.135ZM871.131 138.404l-26.648-94.223h22.673l16.537 66.25h.884l16.881-66.25h22.427l16.931 65.906h.883l16.342-65.906h22.672l-26.647 94.223h-23.164l-17.666-63.649h-1.276l-17.666 63.649h-23.163Z" style="fill-rule:nonzero"/></svg>