<svg viewBox="0 0 157 129" xmlns="http://www.w3.org/2000/svg" xml:space="preserve" style="fill-rule:evenodd;clip-rule:evenodd;stroke-linejoin:round;stroke-miterlimit:2"><path style="fill:none" d="M0 0h156.575v128.267H0z"/><clipPath id="a"><path d="M0 0h156.575v128.267H0z"/></clipPath><g clip-path="url(#a)"><path d="M144.55 70.146c3.34 0 6.179 1.169 8.518 3.507 2.338 2.339 3.507 5.178 3.507 8.518v34.071c0 3.34-1.169 6.18-3.507 8.518-2.339 2.338-5.178 3.507-8.518 3.507H72.574V70.146h71.976Zm0 12.025H84.599v34.071h59.951V82.171Zm0-82.171c3.34 0 6.179 1.169 8.518 3.507 2.338 2.339 3.507 5.178 3.507 8.518v34.071c0 3.34-1.169 6.18-3.507 8.518-2.339 2.338-5.178 3.507-8.518 3.507H51.133V0h93.417Zm0 12.025H63.158v34.071h81.392V12.025Zm-11.023 11.023h-12.025v12.025h12.025V23.048Zm0 70.146h-12.025v12.025h12.025V93.194Zm11.023-11.023v34.071-34.071Zm0-70.146v34.071-34.071Z" style="fill:#4f46e5;fill-rule:nonzero"/><path d="M40.248 21.74v10.09c-8.621 1.009-15.725 4.477-21.311 10.405-5.587 5.928-8.38 13.012-8.38 21.252 0 8.744 3.123 16.207 9.369 22.387 6.246 6.18 13.944 9.438 23.094 9.774h2.903l-8.314-7.946 6.334-6.053 20.191 19.297-20.191 19.423-6.334-6.054 9.106-8.577h-2.904c-12.228 0-22.587-4.12-31.077-12.36C4.245 85.138 0 75.174 0 63.487c0-10.931 3.871-20.39 11.613-28.378C19.354 27.121 28.9 22.664 40.248 21.74Z" style="fill:#4f46e5;fill-rule:nonzero"/></g></svg>